<svg width="120" height="120" viewBox="0 0 120 120" fill="none" xmlns="http://www.w3.org/2000/svg">
<g clip-path="url(#clip0_465_14960)">
<g clip-path="url(#clip1_465_14960)">
<path d="M93.6541 42.458L83.7109 50.8657V122.058H97.0652V42.2379L93.8692 38.3066L93.6541 42.458Z" fill="white" stroke="#4F008D" stroke-width="0.75" stroke-miterlimit="10"/>
<path d="M93.6543 42.458V121.623" stroke="#4F008D" stroke-width="0.75" stroke-miterlimit="10"/>
<path d="M83.876 54.9121L90.9232 58.6783L83.7109 97.0406" stroke="#4F008D" stroke-width="0.75" stroke-miterlimit="10"/>
<path d="M35.705 109.089L32.669 34.5C32.669 34.5 32.654 35.5203 32.659 37.3209C32.609 35.5203 32.574 34.5 32.559 34.5L29.523 109.089L27.8975 111.65H37.3305L35.705 109.089Z" stroke="#4F008D" stroke-width="0.75" stroke-miterlimit="10"/>
<path d="M13.583 109.574L11.3923 55.752C11.3923 55.752 11.3823 56.4872 11.3873 57.7876C11.3523 56.4872 11.3273 55.752 11.3173 55.752L9.12655 109.574L7.95117 111.655H14.7584L13.583 109.574Z" stroke="#4F008D" stroke-width="0.75" stroke-miterlimit="10"/>
<path d="M32.6086 87.5771C36.6554 87.5771 39.9359 84.2965 39.9359 80.2497C39.9359 76.2029 36.6554 72.9224 32.6086 72.9224C28.5618 72.9224 25.2812 76.2029 25.2812 80.2497C25.2812 84.2965 28.5618 87.5771 32.6086 87.5771Z" fill="white" stroke="#4F008D" stroke-width="0.75" stroke-miterlimit="10"/>
<path d="M60 115.5C62.0711 115.5 63.75 113.821 63.75 111.75C63.75 109.679 62.0711 108 60 108C57.9289 108 56.25 109.679 56.25 111.75C56.25 113.821 57.9289 115.5 60 115.5Z" fill="white" stroke="#4F008D" stroke-width="0.75" stroke-miterlimit="10"/>
<path d="M25.7314 77.1636H39.2808" stroke="#4F008D" stroke-width="0.75" stroke-miterlimit="10"/>
<path d="M25.082 79.7695H39.9318" stroke="#4F008D" stroke-width="0.75" stroke-miterlimit="10"/>
<path d="M11.3472 88.1924C14.4244 88.1924 16.919 85.6978 16.919 82.6206C16.919 79.5434 14.4244 77.0488 11.3472 77.0488C8.26996 77.0488 5.77539 79.5434 5.77539 82.6206C5.77539 85.6978 8.26996 88.1924 11.3472 88.1924Z" fill="white" stroke="#4F008D" stroke-width="0.75" stroke-miterlimit="10"/>
<path d="M32.6093 64.0994C34.9462 64.0994 36.8406 62.205 36.8406 59.8681C36.8406 57.5312 34.9462 55.6367 32.6093 55.6367C30.2724 55.6367 28.3779 57.5312 28.3779 59.8681C28.3779 62.205 30.2724 64.0994 32.6093 64.0994Z" fill="white" stroke="#4F008D" stroke-width="0.75" stroke-miterlimit="10"/>
<path d="M6.75 111.75L56.25 111.75" stroke="#4F008D" stroke-width="0.75" stroke-miterlimit="10"/>
<path d="M63.75 111.75L84 111.75" stroke="#4F008D" stroke-width="0.75" stroke-miterlimit="10"/>
<path d="M71.25 94.5L84 94.5" stroke="#4F008D" stroke-width="0.75" stroke-miterlimit="10"/>
<path d="M60 63L60 107.25" stroke="#4F008D" stroke-width="0.75" stroke-miterlimit="10" stroke-dasharray="5.25 5.25"/>
<path d="M97.2354 86.6069H114.601" stroke="#4F008D" stroke-width="0.75" stroke-miterlimit="10"/>
</g>
<path d="M54.4502 17.3672C58.0403 16.0933 61.9597 16.0933 65.5498 17.3672C69.0834 18.6211 72.0859 21.1054 74.001 24.3311C77.3458 29.9649 77.0378 37.109 73.168 42.3916L60 60.3643L46.832 42.3916C42.9622 37.109 42.6542 29.9649 45.999 24.3311C47.9141 21.1054 50.9166 18.6211 54.4502 17.3672Z" stroke="#4F008D" stroke-width="0.75"/>
<circle cx="60" cy="33" r="3.625" stroke="#4F008D" stroke-width="0.75"/>
</g>
<defs>
<clipPath id="clip0_465_14960">
<rect width="120" height="120" fill="white"/>
</clipPath>
<clipPath id="clip1_465_14960">
<rect width="109.2" height="88.6834" fill="white" transform="translate(5.40039 33.75)"/>
</clipPath>
</defs>
</svg>
