<svg width="150" height="90" viewBox="0 0 150 90" fill="none" xmlns="http://www.w3.org/2000/svg">
<path d="M52.9845 17.0151H5.82031V22.9107H52.9845V17.0151Z" fill="#EEF0F1" stroke="#4F008C" stroke-width="0.447761" stroke-miterlimit="10"/>
<path d="M10.6266 20.017C10.6266 19.5014 10.2087 19.0835 9.69318 19.0835C9.17764 19.0835 8.75977 19.5014 8.75977 20.017C8.75977 20.5325 9.17764 20.9504 9.69318 20.9504C10.2087 20.9504 10.6266 20.5325 10.6266 20.017Z" fill="#4F008C"/>
<path d="M16.6491 20.017C16.6491 19.5014 16.2312 19.0835 15.7156 19.0835C15.2001 19.0835 14.7822 19.5014 14.7822 20.017C14.7822 20.5325 15.2001 20.9504 15.7156 20.9504C16.2312 20.9504 16.6491 20.5325 16.6491 20.017Z" fill="#4F008C"/>
<path d="M22.6726 20.017C22.6726 19.5014 22.2547 19.0835 21.7391 19.0835C21.2236 19.0835 20.8057 19.5014 20.8057 20.017C20.8057 20.5325 21.2236 20.9504 21.7391 20.9504C22.2547 20.9504 22.6726 20.5325 22.6726 20.017Z" fill="#4F008C"/>
<path d="M52.9845 17.0151H5.82031V52.3883H52.9845V17.0151Z" stroke="#4F008C" stroke-width="0.447761" stroke-miterlimit="10"/>
<path d="M5.82031 33.2275C11.7158 33.2275 11.7158 36.1753 17.6114 36.1753C23.5069 36.1753 23.5069 33.2275 29.4024 33.2275C35.2979 33.2275 35.2979 36.1753 41.1935 36.1753C47.089 36.1753 47.089 33.2275 52.9845 33.2275" stroke="#4F008C" stroke-width="0.447761" stroke-miterlimit="10"/>
<path d="M5.82031 39.1235C11.7158 39.1235 11.7158 42.0713 17.6114 42.0713C23.5069 42.0713 23.5069 39.1235 29.4024 39.1235C35.2979 39.1235 35.2979 42.0713 41.1935 42.0713C47.089 42.0713 47.089 39.1235 52.9845 39.1235" stroke="#4F008C" stroke-width="0.447761" stroke-miterlimit="10"/>
<path d="M126.873 46.5327H130.598L128.737 53.8483C128.737 53.8483 133.391 59.3364 133.391 64.8218C133.391 71.2236 128.737 77.0154 128.737 77.0154H126.875H125.014C125.014 77.0154 120.36 71.2236 120.36 64.8218C120.36 59.3338 125.014 53.8483 125.014 53.8483L123.153 46.5327H126.878" fill="white"/>
<path d="M126.873 46.5327H130.598L128.737 53.8483C128.737 53.8483 133.391 59.3364 133.391 64.8218C133.391 71.2236 128.737 77.0154 128.737 77.0154H126.875H125.014C125.014 77.0154 120.36 71.2236 120.36 64.8218C120.36 59.3338 125.014 53.8483 125.014 53.8483L123.153 46.5327H126.878" stroke="#4F008C" stroke-width="0.447761" stroke-miterlimit="10"/>
<path d="M115.704 16.9121C115.704 16.9121 127.805 31.8059 126.876 48.5608" stroke="#4F008C" stroke-width="0.447761" stroke-miterlimit="10"/>
<path d="M126.981 43.7962C126.981 43.7962 117.76 38.37 117.292 40.038C116.741 42.002 127.084 44.9005 127.084 44.9005C127.084 44.9005 136.703 38.9697 134.909 37.5231C133.733 36.5732 126.978 43.7988 126.978 43.7988L126.981 43.7962Z" fill="white" stroke="#4F008C" stroke-width="0.447761" stroke-miterlimit="10"/>
<path d="M117.285 35.0211C117.647 33.3866 126.039 37.8578 126.039 37.8578C126.039 37.8578 131.339 30.9283 132.575 31.8035C134.263 33.0004 126.253 38.8952 126.253 38.8952C126.253 38.8952 116.883 36.8462 117.287 35.0211H117.285Z" fill="white" stroke="#4F008C" stroke-width="0.447761" stroke-miterlimit="10"/>
<path d="M116.546 30.5603C116.8 28.954 124.366 32.4728 124.366 32.4728C124.366 32.4728 128.204 25.8419 129.506 26.6399C131.079 27.6 124.687 33.4458 124.687 33.4458C124.687 33.4458 116.283 32.2386 116.548 30.5603H116.546Z" fill="white" stroke="#4F008C" stroke-width="0.447761" stroke-miterlimit="10"/>
<path d="M115.325 26.627C115.462 25.0491 122.211 27.6181 122.211 27.6181C122.211 27.6181 124.579 21.2986 125.956 22.0065C127.398 22.7453 122.641 28.5267 122.641 28.5267C122.641 28.5267 115.194 28.1612 115.328 26.6296L115.325 26.627Z" fill="white" stroke="#4F008C" stroke-width="0.447761" stroke-miterlimit="10"/>
<path d="M113.866 23.157C113.876 21.6048 119.817 23.2265 119.817 23.2265C119.817 23.2265 120.708 17.2339 122.167 17.8337C123.472 18.3691 120.353 24.0682 120.353 24.0682C120.353 24.0682 113.853 24.5444 113.863 23.157H113.866Z" fill="white" stroke="#4F008C" stroke-width="0.447761" stroke-miterlimit="10"/>
<path d="M117.408 19.0796C117.408 19.0796 116.813 13.4423 118.365 13.9082C119.529 14.2583 118.054 19.8544 118.054 19.8544C118.054 19.8544 112.494 21.1724 112.391 19.9316C112.265 18.4103 117.408 19.0796 117.408 19.0796Z" fill="white" stroke="#4F008C" stroke-width="0.447761" stroke-miterlimit="10"/>
<path d="M103.881 49.6357C103.881 49.6357 117.229 50.3814 118.608 50.4536C122.076 50.6364 121.81 55.1247 118.637 55.4133C114.9 55.7501 103.905 56.26 103.905 56.26" fill="white"/>
<path d="M103.881 49.6357C103.881 49.6357 117.229 50.3814 118.608 50.4536C122.076 50.6364 121.81 55.1247 118.637 55.4133C114.9 55.7501 103.905 56.26 103.905 56.26" stroke="#4F008C" stroke-width="0.447761" stroke-miterlimit="10"/>
<path d="M103.91 58.5977C103.91 58.5977 118.71 59.3577 120.952 59.4828C125.9 59.757 125.842 63.9663 121.295 64.3416C117.287 64.6735 103.929 65.4384 103.929 65.4384" fill="white"/>
<path d="M103.91 58.5977C103.91 58.5977 118.71 59.3577 120.952 59.4828C125.9 59.757 125.842 63.9663 121.295 64.3416C117.287 64.6735 103.929 65.4384 103.929 65.4384" stroke="#4F008C" stroke-width="0.447761" stroke-miterlimit="10"/>
<path d="M103.934 67.7432C103.934 67.7432 116.939 68.3878 117.914 68.4936C118.888 68.5995 121.116 68.7005 121.236 70.7498C121.357 72.7992 119.191 73.4197 117.316 73.4967C115.44 73.5737 103.953 74.151 103.953 74.151" fill="white"/>
<path d="M103.934 67.7432C103.934 67.7432 116.939 68.3878 117.914 68.4936C118.888 68.5995 121.116 68.7005 121.236 70.7498C121.357 72.7992 119.191 73.4197 117.316 73.4967C115.44 73.5737 103.953 74.151 103.953 74.151" stroke="#4F008C" stroke-width="0.447761" stroke-miterlimit="10"/>
<path d="M103.968 77.499C103.968 77.499 105.747 77.5664 106.403 79.0769C107.059 80.5875 105.979 81.6362 105.472 81.8863C104.966 82.1413 104.185 82.2856 103.982 82.2856" fill="white"/>
<path d="M103.968 77.499C103.968 77.499 105.747 77.5664 106.403 79.0769C107.059 80.5875 105.979 81.6362 105.472 81.8863C104.966 82.1413 104.185 82.2856 103.982 82.2856" stroke="#4F008C" stroke-width="0.447761" stroke-miterlimit="10"/>
<path d="M103.613 1.64307V84.061C103.613 85.5411 102.416 86.7375 100.943 86.7375H57.8242L57.9077 1.73034L103.617 1.64307H103.613Z" fill="white" stroke="#4F008C" stroke-width="0.447761" stroke-miterlimit="10" stroke-linejoin="round"/>
<path d="M100.348 4.91602H61.1689V73.6461H100.348V4.91602Z" fill="#EEF0F1" stroke="#4F008C" stroke-width="0.447761" stroke-miterlimit="10"/>
<path d="M80.7591 83.4647C82.5622 83.4647 84.024 81.9994 84.024 80.1918C84.024 78.3843 82.5622 76.9189 80.7591 76.9189C78.9559 76.9189 77.4941 78.3843 77.4941 80.1918C77.4941 81.9994 78.9559 83.4647 80.7591 83.4647Z" fill="#EEF0F1" stroke="#4F008C" stroke-width="0.447761" stroke-miterlimit="10"/>
<path d="M92.2229 6.01807H92.2192C91.9347 6.01807 91.7041 6.24926 91.7041 6.53445V6.53809C91.7041 6.82328 91.9347 7.05447 92.2192 7.05447H92.2229C92.5074 7.05447 92.738 6.82328 92.738 6.53809V6.53445C92.738 6.24926 92.5074 6.01807 92.2229 6.01807Z" fill="#4F008C"/>
<path d="M92.2229 9.36377H92.2192C91.9347 9.36377 91.7041 9.59496 91.7041 9.88015V9.88379C91.7041 10.169 91.9347 10.4002 92.2192 10.4002H92.2229C92.5074 10.4002 92.738 10.169 92.738 9.88379V9.88015C92.738 9.59496 92.5074 9.36377 92.2229 9.36377Z" fill="#4F008C"/>
<path d="M92.2229 12.7056H92.2192C91.9347 12.7056 91.7041 12.9368 91.7041 13.222V13.2256C91.7041 13.5108 91.9347 13.742 92.2192 13.742H92.2229C92.5074 13.742 92.738 13.5108 92.738 13.2256V13.222C92.738 12.9368 92.5074 12.7056 92.2229 12.7056Z" fill="#4F008C"/>
<path d="M95.3752 6.01807H95.3716C95.0871 6.01807 94.8564 6.24926 94.8564 6.53445V6.53809C94.8564 6.82328 95.0871 7.05447 95.3716 7.05447H95.3752C95.6597 7.05447 95.8903 6.82328 95.8903 6.53809V6.53445C95.8903 6.24926 95.6597 6.01807 95.3752 6.01807Z" fill="#4F008C"/>
<path d="M95.3752 9.36377H95.3716C95.0871 9.36377 94.8564 9.59496 94.8564 9.88015V9.88379C94.8564 10.169 95.0871 10.4002 95.3716 10.4002H95.3752C95.6597 10.4002 95.8903 10.169 95.8903 9.88379V9.88015C95.8903 9.59496 95.6597 9.36377 95.3752 9.36377Z" fill="#4F008C"/>
<path d="M95.3752 12.7056H95.3716C95.0871 12.7056 94.8564 12.9368 94.8564 13.222V13.2256C94.8564 13.5108 95.0871 13.742 95.3716 13.742H95.3752C95.6597 13.742 95.8903 13.5108 95.8903 13.2256V13.222C95.8903 12.9368 95.6597 12.7056 95.3752 12.7056Z" fill="#4F008C"/>
<path d="M98.5236 6.01807H98.52C98.2355 6.01807 98.0049 6.24926 98.0049 6.53445V6.53809C98.0049 6.82328 98.2355 7.05447 98.52 7.05447H98.5236C98.8081 7.05447 99.0388 6.82328 99.0388 6.53809V6.53445C99.0388 6.24926 98.8081 6.01807 98.5236 6.01807Z" fill="#4F008C"/>
<path d="M98.5236 9.36377H98.52C98.2355 9.36377 98.0049 9.59496 98.0049 9.88015V9.88379C98.0049 10.169 98.2355 10.4002 98.52 10.4002H98.5236C98.8081 10.4002 99.0388 10.169 99.0388 9.88379V9.88015C99.0388 9.59496 98.8081 9.36377 98.5236 9.36377Z" fill="#4F008C"/>
<path d="M98.5236 12.7056H98.52C98.2355 12.7056 98.0049 12.9368 98.0049 13.222V13.2256C98.0049 13.5108 98.2355 13.742 98.52 13.742H98.5236C98.8081 13.742 99.0388 13.5108 99.0388 13.2256V13.222C99.0388 12.9368 98.8081 12.7056 98.5236 12.7056Z" fill="#4F008C"/>
<path d="M100.218 4.97754H90.4229V14.7961H100.218V4.97754Z" stroke="#4F008C" stroke-width="0.671642" stroke-miterlimit="10"/>
<path d="M72.7629 25.5933H72.7593C72.4748 25.5933 72.2441 25.8245 72.2441 26.1096V26.1133C72.2441 26.3985 72.4748 26.6297 72.7593 26.6297H72.7629C73.0474 26.6297 73.278 26.3985 73.278 26.1133V26.1096C73.278 25.8245 73.0474 25.5933 72.7629 25.5933Z" fill="#4F008C"/>
<path d="M72.7629 28.939H72.7593C72.4748 28.939 72.2441 29.1702 72.2441 29.4553V29.459C72.2441 29.7442 72.4748 29.9754 72.7593 29.9754H72.7629C73.0474 29.9754 73.278 29.7442 73.278 29.459V29.4553C73.278 29.1702 73.0474 28.939 72.7629 28.939Z" fill="#4F008C"/>
<path d="M72.7629 32.2808H72.7593C72.4748 32.2808 72.2441 32.512 72.2441 32.7971V32.8008C72.2441 33.086 72.4748 33.3172 72.7593 33.3172H72.7629C73.0474 33.3172 73.278 33.086 73.278 32.8008V32.7971C73.278 32.512 73.0474 32.2808 72.7629 32.2808Z" fill="#4F008C"/>
<path d="M75.9153 25.5933H75.9116C75.6271 25.5933 75.3965 25.8245 75.3965 26.1096V26.1133C75.3965 26.3985 75.6271 26.6297 75.9116 26.6297H75.9153C76.1998 26.6297 76.4304 26.3985 76.4304 26.1133V26.1096C76.4304 25.8245 76.1998 25.5933 75.9153 25.5933Z" fill="#4F008C"/>
<path d="M75.9153 28.939H75.9116C75.6271 28.939 75.3965 29.1702 75.3965 29.4553V29.459C75.3965 29.7442 75.6271 29.9754 75.9116 29.9754H75.9153C76.1998 29.9754 76.4304 29.7442 76.4304 29.459V29.4553C76.4304 29.1702 76.1998 28.939 75.9153 28.939Z" fill="#4F008C"/>
<path d="M75.9153 32.2808H75.9116C75.6271 32.2808 75.3965 32.512 75.3965 32.7971V32.8008C75.3965 33.086 75.6271 33.3172 75.9116 33.3172H75.9153C76.1998 33.3172 76.4304 33.086 76.4304 32.8008V32.7971C76.4304 32.512 76.1998 32.2808 75.9153 32.2808Z" fill="#4F008C"/>
<path d="M79.0637 25.5933H79.06C78.7755 25.5933 78.5449 25.8245 78.5449 26.1096V26.1133C78.5449 26.3985 78.7755 26.6297 79.06 26.6297H79.0637C79.3482 26.6297 79.5788 26.3985 79.5788 26.1133V26.1096C79.5788 25.8245 79.3482 25.5933 79.0637 25.5933Z" fill="#4F008C"/>
<path d="M79.0637 28.939H79.06C78.7755 28.939 78.5449 29.1702 78.5449 29.4553V29.459C78.5449 29.7442 78.7755 29.9754 79.06 29.9754H79.0637C79.3482 29.9754 79.5788 29.7442 79.5788 29.459V29.4553C79.5788 29.1702 79.3482 28.939 79.0637 28.939Z" fill="#4F008C"/>
<path d="M79.0637 32.2808H79.06C78.7755 32.2808 78.5449 32.512 78.5449 32.7971V32.8008C78.5449 33.086 78.7755 33.3172 79.06 33.3172H79.0637C79.3482 33.3172 79.5788 33.086 79.5788 32.8008V32.7971C79.5788 32.512 79.3482 32.2808 79.0637 32.2808Z" fill="#4F008C"/>
<path d="M61.3428 8.95563L67.1637 4.92578H61.3428V8.95563Z" fill="#4F008C"/>
<path d="M67.207 35.524L67.207 64.2524L93.6892 64.2524L93.6892 35.524L67.207 35.524Z" fill="white" stroke="#4F008C" stroke-width="0.447761" stroke-miterlimit="10"/>
<path d="M88.4482 57.4727L87.9219 58.6572H88.625L91.0449 58.1387V59.5967L88.123 60.8955H84.627V58.3584H85.7148L87.4238 56.96L88.4482 57.4727ZM85.9277 58.9551H85.2236V60.2988H87.9961L90.4473 59.209V58.877L88.7188 59.2471L88.6562 59.2539H87.0029L87.6709 57.751L87.502 57.667L85.9277 58.9551ZM90.2988 53.7314C90.9582 53.7316 91.4922 54.2664 91.4922 54.9258V55.0488L89.4033 57.1387L87.3135 55.0488V54.9258C87.3135 54.2663 87.8484 53.7314 88.5078 53.7314C88.8643 53.7315 89.1846 53.8879 89.4033 54.1357C89.6221 53.8879 89.9422 53.7314 90.2988 53.7314ZM90.2988 54.3281C89.9691 54.3281 89.7021 54.5961 89.7021 54.9258H89.1045C89.1045 54.5961 88.8375 54.3282 88.5078 54.3281C88.2167 54.3281 87.9737 54.5368 87.9209 54.8125L89.4033 56.2939L90.8848 54.8125C90.832 54.5368 90.5899 54.3282 90.2988 54.3281Z" fill="#4F008C"/>
<path d="M70.7469 59.5527H82.3887" stroke="#4F008C" stroke-width="0.671642" stroke-miterlimit="10"/>
<path d="M70.7469 55.5225H82.3887" stroke="#4F008C" stroke-width="0.671642" stroke-miterlimit="10"/>
<path d="M68.0592 73.4331C68.0592 71.9704 67.0393 71.3411 66.4 70.9779C65.1587 70.2739 64.2259 69.8411 63.8179 68.4928C63.3428 66.9182 64.104 62.2391 61.3428 62.2391L61.3428 73.4331L68.0592 73.4331Z" stroke="#4F008C" stroke-width="0.447761" stroke-miterlimit="10"/>
<path d="M93.6882 31.5244H67.2061V34.8579H93.6882V31.5244Z" fill="#EEF0F1" stroke="#4F008C" stroke-width="0.447761" stroke-miterlimit="10"/>
<path d="M69.3834 32.6909H69.3797C69.0913 32.6909 68.8574 32.9264 68.8574 33.2169V33.2206C68.8574 33.511 69.0913 33.7465 69.3797 33.7465H69.3834C69.6718 33.7465 69.9057 33.511 69.9057 33.2206V33.2169C69.9057 32.9264 69.6718 32.6909 69.3834 32.6909Z" fill="#4F008C"/>
<path d="M72.7642 32.6909H72.7606C72.4721 32.6909 72.2383 32.9264 72.2383 33.2169V33.2206C72.2383 33.511 72.4721 33.7465 72.7606 33.7465H72.7642C73.0527 33.7465 73.2865 33.511 73.2865 33.2206V33.2169C73.2865 32.9264 73.0527 32.6909 72.7642 32.6909Z" fill="#4F008C"/>
<path d="M76.1432 32.6909H76.1395C75.851 32.6909 75.6172 32.9264 75.6172 33.2169V33.2206C75.6172 33.511 75.851 33.7465 76.1395 33.7465H76.1432C76.4316 33.7465 76.6654 33.511 76.6654 33.2206V33.2169C76.6654 32.9264 76.4316 32.6909 76.1432 32.6909Z" fill="#4F008C"/>
<path d="M93.6882 31.5244H67.2061V51.5252H93.6882V31.5244Z" stroke="#4F008C" stroke-width="0.447761" stroke-miterlimit="10"/>
<path d="M67.207 40.4136C70.5173 40.4136 70.5173 42.6359 73.8276 42.6359C77.1378 42.6359 77.1378 40.4136 80.4481 40.4136C83.7584 40.4136 83.7584 42.6359 87.0687 42.6359C90.3789 42.6359 90.3789 40.4136 93.6892 40.4136" stroke="#4F008C" stroke-width="0.447761" stroke-miterlimit="10"/>
<path d="M67.207 43.7471C70.5173 43.7471 70.5173 45.9694 73.8276 45.9694C77.1378 45.9694 77.1378 43.7471 80.4481 43.7471C83.7584 43.7471 83.7584 45.9694 87.0687 45.9694C90.3789 45.9694 90.3789 43.7471 93.6892 43.7471" stroke="#4F008C" stroke-width="0.447761" stroke-miterlimit="10"/>
<path d="M67.207 8.97822L67.207 36.6157L93.6892 36.6157L93.6892 8.97822L67.207 8.97822Z" fill="#FF375E" stroke="#FF375E" stroke-width="0.671642" stroke-miterlimit="10"/>
<path d="M80.0186 14.6125C80.3471 13.9469 81.2963 13.9469 81.6247 14.6125L83.5742 18.5625C83.7046 18.8268 83.9568 19.01 84.2485 19.0524L88.6076 19.6858C89.3421 19.7926 89.6354 20.6952 89.1039 21.2133L85.9496 24.288C85.7385 24.4937 85.6422 24.7901 85.6921 25.0806L86.4367 29.4221C86.5621 30.1537 85.7943 30.7115 85.1373 30.3661L81.2384 28.3164C80.9775 28.1792 80.6659 28.1792 80.405 28.3164L76.5061 30.3661C75.8491 30.7115 75.0812 30.1537 75.2067 29.4221L75.9513 25.0806C76.0012 24.7901 75.9049 24.4937 75.6938 24.288L72.5395 21.2133C72.008 20.6952 72.3013 19.7926 73.0358 19.6858L77.3949 19.0524C77.6866 19.01 77.9388 18.8268 78.0692 18.5625L80.0186 14.6125Z" fill="white" stroke="#4F008C" stroke-width="0.671642"/>
<path d="M40.565 44.5287L27.7617 44.5688L27.8808 82.3949L40.6841 82.3547L40.565 44.5287Z" fill="white" stroke="#4F008C" stroke-width="0.447761" stroke-miterlimit="10"/>
<path d="M53.6101 64.847C56.8797 63.4952 62.1601 60.5992 63.0137 55.3123C63.8624 50.0302 61.9335 47.9231 65.3911 46.0902C68.8487 44.2574 73.4637 41.8424 74.2256 39.1533C74.9876 36.4641 74.9827 34.5447 74.785 33.5825C74.785 33.5825 56.952 40.7504 51.334 43.0643" fill="white"/>
<path d="M53.6101 64.847C56.8797 63.4952 62.1601 60.5992 63.0137 55.3123C63.8624 50.0302 61.9335 47.9231 65.3911 46.0902C68.8487 44.2574 73.4637 41.8424 74.2256 39.1533C74.9876 36.4641 74.9827 34.5447 74.785 33.5825C74.785 33.5825 56.952 40.7504 51.334 43.0643" stroke="#4F008C" stroke-width="0.671642" stroke-miterlimit="10"/>
<path d="M53.6095 64.847C56.879 63.4952 62.1595 60.5992 63.013 55.3123C63.8617 50.0302 61.9328 47.9231 65.3904 46.0902C68.848 44.2574 73.463 41.8424 74.2249 39.1533C74.9869 36.4641 74.9821 34.5447 74.7843 33.5825C74.7843 33.5825 56.9513 40.7504 51.3333 43.0643C44.9919 45.6765 36.1333 44.7432 31.4171 44.6615L27.7617 44.5749L27.8775 82.4011L57.4191 82.3097L57.3612 62.9179" fill="white"/>
<path d="M53.6095 64.847C56.879 63.4952 62.1595 60.5992 63.013 55.3123C63.8617 50.0302 61.9328 47.9231 65.3904 46.0902C68.848 44.2574 73.463 41.8424 74.2249 39.1533C74.9869 36.4641 74.9821 34.5447 74.7843 33.5825C74.7843 33.5825 56.9513 40.7504 51.3333 43.0643C44.9919 45.6765 36.1333 44.7432 31.4171 44.6615L27.7617 44.5749L27.8775 82.4011L57.4191 82.3097L57.3612 62.9179" stroke="#4F008C" stroke-width="0.447761" stroke-miterlimit="10"/>
<path d="M40.5605 44.873L40.6763 82.3577" stroke="#4F008C" stroke-width="0.447761" stroke-miterlimit="10"/>
<path d="M31.9137 82.3819L37.5751 76.1281L31.8751 69.8068L37.5365 63.6252L31.8365 57.1356L37.498 50.9731L31.417 44.6567" fill="white"/>
<path d="M31.9137 82.3819L37.5751 76.1281L31.8751 69.8068L37.5365 63.6252L31.8365 57.1356L37.498 50.9731L31.417 44.6567" stroke="#4F008C" stroke-width="0.447761" stroke-miterlimit="10"/>
</svg>
